<?xml version="1.0" encoding="UTF-8"?>
<svg width="400" height="400" viewBox="0 0 400 400" xmlns="http://www.w3.org/2000/svg">
  <circle cx="200" cy="200" r="180" fill="black" stroke="#C41E3A" stroke-width="20"/>
  <path d="M200 320 
           C160 320 130 290 130 250
           L130 150
           C130 110 160 80 200 80
           C240 80 270 110 270 150
           L270 250
           C270 290 240 320 200 320Z" 
        fill="#C41E3A" stroke="#C41E3A" stroke-width="5"/>
  <rect x="160" y="100" width="80" height="15" rx="5" fill="black"/>
  <rect x="160" y="125" width="80" height="15" rx="5" fill="black"/>
  <rect x="160" y="150" width="80" height="15" rx="5" fill="black"/>
  <rect x="160" y="175" width="80" height="15" rx="5" fill="black"/>
  <rect x="160" y="200" width="80" height="15" rx="5" fill="black"/>
  <rect x="170" y="320" width="10" height="100" rx="5" fill="#C41E3A"/>
  <rect x="220" y="320" width="10" height="100" rx="5" fill="#C41E3A"/>
  <circle cx="200" cy="350" r="30" fill="#C41E3A" stroke="black" stroke-width="5"/>
</svg> 